<svg width="44" height="44" viewBox="0 0 44 44" fill="none" xmlns="http://www.w3.org/2000/svg">
<path fill-rule="evenodd" clip-rule="evenodd" d="M5.20398 15.0518C4.85047 15.2873 4.48814 15.5287 4.12638 15.5279C3.0195 15.5292 1.903 15.0769 1.09313 14.1982C0.364379 13.409 -0.00137114 12.397 3.86239e-06 11.4001C-0.00137114 10.2932 0.448254 9.17399 1.32688 8.36411C7.128 3.00986 14.5709 0.327239 22 0.328614C29.4305 0.327239 36.872 2.98786 42.6731 8.34211C43.5518 9.15199 44.0014 10.2396 44 11.3451C44.0014 12.342 43.6356 13.2962 42.9069 14.0869C42.097 14.9627 40.9819 15.2996 39.875 15.2982C39.4411 15.2982 39.0072 15.0859 38.5883 14.8808C38.4616 14.8188 38.3362 14.7575 38.2126 14.7029L25.7758 40.9117H25.773C25.0676 42.2867 23.4974 43.3881 22.0014 43.373C20.5054 43.3881 18.9351 42.2867 18.2298 40.9117H18.227L5.79013 14.7042C5.59865 14.7888 5.40271 14.9194 5.204 15.0518L5.20398 15.0518ZM24.75 30.5387C24.7528 31.7982 25.6135 32.8542 26.774 33.1774L29.0538 28.2892C28.6096 27.9799 28.0816 27.7887 27.5 27.7887C25.9875 27.7915 24.7528 29.0262 24.75 30.5387ZM30.2198 25.7895C29.414 25.3261 28.4941 25.0374 27.5 25.0374C24.4626 25.0401 22.0028 27.5014 22 30.5374C22.0014 32.9051 23.507 34.9057 25.6066 35.6799L23.2815 40.6642L23.2636 40.7041C23.0079 41.2844 22.5431 41.5222 22 41.5374C21.4569 41.5222 20.9921 41.2844 20.7364 40.7041L20.7185 40.6642L8.0465 13.4929C12.0863 10.2341 17.0321 8.58274 22 8.58274C26.9679 8.58412 31.9124 10.2341 35.9549 13.4942L30.2198 25.7895ZM22 3.09236C15.2254 3.09374 8.46175 5.52749 3.19275 10.3922C2.89575 10.6659 2.75138 11.0275 2.75 11.4029C2.75138 11.7411 2.86825 12.067 3.11438 12.3351C3.38938 12.6321 3.751 12.7765 4.12638 12.7779C4.46325 12.7765 4.78775 12.6596 5.05725 12.4121C5.09973 12.3732 5.1444 12.3375 5.18919 12.3018C5.23139 12.2681 5.27369 12.2343 5.31438 12.1976C5.33076 12.1789 5.35112 12.1637 5.37146 12.1486C5.38696 12.137 5.40245 12.1255 5.41613 12.1124C10.1186 7.93511 16.06 5.83136 22 5.83274C27.94 5.83136 33.8828 7.93511 38.5839 12.111C38.5974 12.1234 38.6121 12.1344 38.6268 12.1454C38.6478 12.1612 38.6686 12.1768 38.6856 12.1962C38.7262 12.2328 38.7681 12.2666 38.8099 12.3002C38.8544 12.336 38.8988 12.3717 38.9414 12.4107C39.2109 12.6582 39.5381 12.7751 39.8736 12.7765C40.249 12.7751 40.612 12.6307 40.8856 12.3351C41.1318 12.067 41.2486 11.7411 41.25 11.4029C41.2486 11.0275 41.1043 10.6659 40.8073 10.3922C35.5383 5.52749 28.7746 3.09374 22 3.09236Z" fill="white"/>
<path fill-rule="evenodd" clip-rule="evenodd" d="M19.25 22.2888C16.2126 22.2861 13.7527 19.8248 13.75 16.7888C13.7527 13.7514 16.214 11.2902 19.25 11.2888C22.2874 11.2916 24.7472 13.7528 24.75 16.7888C24.7472 19.8248 22.286 22.2861 19.25 22.2888ZM19.25 19.5388C20.7625 19.5361 21.9972 18.3013 22 16.7888C21.9972 15.2749 20.7625 14.0416 19.25 14.0388C17.7375 14.0416 16.5027 15.2763 16.5 16.7888C16.5027 18.3013 17.7375 19.5361 19.25 19.5388Z" fill="white"/>
</svg>
